<?xml version="1.0" encoding="utf-8"?><!-- Uploaded to: SVG Repo, www.svgrepo.com, Generator: SVG Repo Mixer Tools -->
<svg version="1.1" id="Uploaded to svgrepo.com" xmlns="http://www.w3.org/2000/svg" xmlns:xlink="http://www.w3.org/1999/xlink" 
	 width="800px" height="800px" viewBox="0 0 32 32" xml:space="preserve">
<style type="text/css">
	.sharpcorners_een{fill:#111918;}
	.st0{fill:#111918;}
</style>
<path class="sharpcorners_een" d="M4,2v28h24V2H4z M13.354,23.646l-0.707,0.707L11.5,23.207l-1.146,1.146l-0.707-0.707l1.146-1.146
	l-1.146-1.146l0.707-0.707l1.146,1.146l1.146-1.146l0.707,0.707L12.207,22.5L13.354,23.646z M13.354,16.646l-0.707,0.707
	L11.5,16.207l-1.146,1.146l-0.707-0.707l1.146-1.146l-1.146-1.146l0.707-0.707l1.146,1.146l1.146-1.146l0.707,0.707L12.207,15.5
	L13.354,16.646z M13.354,9.646l-0.707,0.707L11.5,9.207l-1.146,1.146L9.646,9.646L10.793,8.5L9.646,7.354l0.707-0.707L11.5,7.793
	l1.146-1.146l0.707,0.707L12.207,8.5L13.354,9.646z M22,24h-7v-1h7V24z M22,22h-7v-1h7V22z M22,17h-7v-1h7V17z M22,15h-7v-1h7V15z
	 M22,10h-7V9h7V10z M22,8h-7V7h7V8z"/>
</svg>